<?xml version="1.0" standalone="no"?>
<!DOCTYPE svg PUBLIC "-//W3C//DTD SVG 20010904//EN"
 "http://www.w3.org/TR/2001/REC-SVG-20010904/DTD/svg10.dtd">
<svg version="1.0" xmlns="http://www.w3.org/2000/svg"
 width="1024.000000pt" height="1024.000000pt" viewBox="0 0 1024.000000 1024.000000"
 preserveAspectRatio="xMidYMid meet">
<metadata>
Created by potrace 1.11, written by Peter Selinger 2001-2013
</metadata>
<g transform="translate(0.000000,1024.000000) scale(0.100000,-0.100000)"
fill="#000000" stroke="none">
<path d="M0 5995 l0 -4245 1551 0 1551 0 -52 57 c-284 311 -449 700 -522 1233
-21 151 -17 751 5 910 74 522 222 891 492 1225 367 454 860 675 1507 675 531
0 957 -150 1270 -448 295 -282 458 -633 520 -1122 10 -78 13 -286 13 -815 0
-634 -2 -723 -18 -830 -72 -476 -225 -796 -513 -1076 -283 -274 -582 -410
-1016 -464 -106 -13 -434 -15 -2455 -15 l-2333 0 0 -540 0 -540 5120 0 5120 0
0 5120 0 5120 -5120 0 -5120 0 0 -4245z m3290 3136 c132 -42 263 -145 346
-272 84 -128 114 -245 114 -432 -1 -255 -63 -438 -210 -620 -100 -124 -231
-216 -373 -261 -75 -24 -1785 -342 -1793 -333 -3 3 211 472 220 483 1 2 1014
194 1022 194 4 0 -9 19 -28 43 -167 204 -216 513 -123 780 35 103 81 173 170
262 90 90 166 135 277 165 97 27 281 22 378 -9z m1414 -1127 c184 -47 275
-186 275 -419 0 -204 -73 -348 -208 -409 -169 -76 -430 -45 -539 65 -95 94
-140 273 -112 444 28 175 123 282 285 321 73 18 226 17 299 -2z"/>
<path d="M2983 8764 c-55 -20 -119 -92 -138 -156 -39 -133 -24 -293 37 -396
36 -59 124 -144 187 -179 l39 -23 71 66 c79 73 131 163 152 261 23 112 -3 278
-55 358 -9 13 -37 36 -62 51 -58 34 -165 42 -231 18z"/>
<path d="M4360 5180 c-333 -40 -595 -190 -792 -455 -197 -264 -305 -619 -326
-1072 -40 -830 191 -1456 644 -1745 191 -122 430 -172 706 -148 332 28 541
111 716 282 150 147 242 342 289 611 13 75 16 205 20 712 6 763 -5 912 -79
1145 -117 366 -362 584 -738 655 -102 20 -335 27 -440 15z"/>
</g>
</svg>
